# AST/ASF file generated using VICON BodyLanguage
# -----------------------------------------------
:version 1.10
:name VICON
:units
  mass 1.0
  length 0.45
  angle deg
:documentation
   .ast/.asf automatically generated from VICON data using
   VICON BodyBuilder and BodyLanguage model FoxedUp or BRILLIANT.MOD
:root
   order TX TY TZ RX RY RZ
   axis XYZ
   position 0 0 0  
   orientation 0 0 0 
:bonedata
  begin
     id 1 
     name lhipjoint
     direction 0.682418 -0.694059 0.22932 
     length 2.25561 
     axis 0 0 0  XYZ
  end
  begin
     id 2 
     name lfemur
     direction 0.34202 -0.939693 0  
     length 6.96448  
     axis 0 0 20  XYZ
    dof rx ry rz
    limits (-160.0 20.0)
           (-70.0 70.0)
           (-60.0 70.0)
  end
  begin
     id 3 
     name ltibia
     direction 0.34202 -0.939693 0   
     length 6.88553   
     axis 0 0 20   XYZ
    dof rx
    limits (-10.0 170.0)
  end
  begin
     id 4 
     name lfoot
     direction 0.0723587 -0.198804 0.977364   
     length 1.88518   
     axis -90 7.62852e-016 20   XYZ
    dof rx rz
    limits (-45.0 90.0)
           (-70.0 20.0)
  end
  begin
     id 5 
     name ltoes
     direction 1.53558e-011 -4.21962e-011 1   
     length 0.952124   
     axis -90 7.62852e-016 20   XYZ
    dof rx
    limits (-90.0 20.0)
  end
  begin
     id 6 
     name rhipjoint
     direction -0.657603 -0.71533 0.236348   
     length 2.18854  
     axis 0 0 0  XYZ 
  end
  begin
     id 7 
     name rfemur
     direction -0.34202 -0.939693 0   
     length 6.86686   
     axis 0 0 -20   XYZ
    dof rx ry rz
    limits (-160.0 20.0)
           (-70.0 70.0)
           (-70.0 60.0)
  end
  begin
     id 8 
     name rtibia
     direction -0.34202 -0.939693 0   
     length 6.59503   
     axis 0 0 -20   XYZ
    dof rx
    limits (-10.0 170.0)
 end
 begin
     id 9 
     name rfoot
     direction -0.101977 -0.280179 0.954516   
     length 1.93723  
     axis -90 -7.62852e-016 -20   XYZ
    dof rx rz
    limits (-45.0 90.0)
           (-20.0 70.0)
  end
  begin
     id 10 
     name rtoes
     direction -1.53564e-011 -4.21897e-011 1   
     length 0.970315   
     axis -90 -7.62852e-016 -20   XYZ
    dof rx
    limits (-90.0 20.0)
  end
  begin
     id 11 
     name lowerback
     direction -0.0339559 0.999421 -0.00235966   
     length 1.88543   
     axis 0 0 0   XYZ
    dof rx ry rz
    limits (-20.0 45.0)
           (-30.0 30.0)
           (-30.0 30.0)
  end
  begin
     id 12 
     name upperback
     direction 0.00401003 0.999739 0.0224689   
     length 1.8856   
     axis 0 0 0   XYZ
    dof rx ry rz
    limits (-20.0 45.0)
           (-30.0 30.0)
           (-30.0 30.0)
  end
  begin
     id 13 
     name thorax
     direction 0.0198619 0.999546 0.0226536   
     length 1.88352   
     axis 0 0 0   XYZ
    dof rx ry rz
    limits (-20.0 45.0)
           (-30.0 30.0)
           (-30.0 30.0)
  end
  begin
     id 14 
     name lowerneck
     direction -0.0461848 0.998632 0.0245198   
     length 1.34895   
     axis 0 0 0   XYZ
    dof rx ry rz
    limits (-20.0 45.0)
           (-30.0 30.0)
           (-30.0 30.0)
  end
  begin
     id 15 
     name upperneck
     direction -0.0180627 0.994724 -0.100984   
     length 1.35214   
     axis 0 0 0   XYZ
    dof rx ry rz
    limits (-20.0 45.0)
           (-30.0 30.0)
           (-30.0 30.0)
  end
  begin
     id 16
     name head
     direction -0.00374772 0.999293 -0.037403  
     length 1.3568  
     axis 0 0 0   XYZ
    dof rx ry rz
    limits (-20.0 45.0)
           (-30.0 30.0)
           (-30.0 30.0)
  end
  begin
     id 17 
     name lclavicle
     direction 0.971773 0.191119 0.138311  
     length 2.84954  
     axis 0 0 0   XYZ
    dof ry rz
    limits (-20.0 10.0)
           (0.0 20.0)
  end
  begin
     id 18 
     name lhumerus
     direction 1 -4.4897e-011 -2.43761e-027   
     length 4.40919   
     axis 180 -30 -90   XYZ
    dof rx ry rz
    limits (-60.0 90.0)
           (-90.0 90.0)
           (-90.0 90.0)
  end
  begin
     id 19
     name lradius
     direction 1 -4.4896e-011 -9.1621e-027   
     length 3.03857   
     axis 180 -30 -90   XYZ
    dof rx
    limits (-10.0 170.0)
  end
  begin
     id 20
     name lwrist
     direction 1 -4.4896e-011 -1.41363e-026   
     length 1.51928   
     axis 1.07133e-014 90 90   XYZ
    dof ry
    limits (-180.0 0.0)
 end
  begin
     id 21 
     name lhand
     direction 1 -4.48978e-011 -2.82725e-026   
     length 0.523208   
     axis 1.80403e-014 90 90   XYZ
    dof rx rz
    limits (-90.0 90.0)
           (-45.0 45.0)
  end
  begin
     id 22 
     name lfingers
     direction 1 -4.48977e-011 -5.6545e-026   
     length 0.421824   
     axis 3.60806e-014 90 90   XYZ
    dof rx
    limits (0.0 90.0)
  end
  begin
     id 23
     name lthumb
     direction 0.707107 -6.34962e-011 0.707107   
     length 0.605657   
     axis -90 45 2.85299e-015   XYZ
    dof rx rz
    limits (-45.0 45.0)
           (-45.0 45.0)
  end
  begin
     id 24 
     name rclavicle
     direction -0.957247 0.24311 0.156766   
     length 3.12406  
     axis 0 0 0   XYZ 
    dof ry rz
    limits (-10.0 20.0)
           (-20.0 0.0)
  end
  begin
     id 25 
     name rhumerus
     direction -1 -4.48964e-011 -1.70632e-027  
     length 4.61969   
     axis 180 30 90   XYZ
    dof rx ry rz
    limits (-90.0 60.0)
           (-90.0 90.0)
           (-90.0 90.0)
  end
  begin
     id 26 
     name rradius
     direction -1 -4.48966e-011 -6.60395e-027   
     length 3.09382   
     axis 180 30 90   XYZ
    dof rx
    limits (-10.0 170.0)
  end
  begin
     id 27 
     name rwrist
     direction -1 -4.48963e-011 -1.41363e-026   
     length 1.54691   
     axis 1.07133e-014 -90 -90   XYZ
    dof ry
    limits (-180.0 0.0)
  end
  begin
     id 28
     name rhand
     direction -1 -4.49013e-011 -2.82725e-026   
     length 0.500896   
     axis 1.80403e-014 -90 -90   XYZ
    dof rx rz
    limits (-90.0 90.0)
           (-45.0 45.0)
  end
  begin
     id 29
     name rfingers
     direction -1 -4.48902e-011 -5.6545e-026   
     length 0.403835   
     axis 3.60806e-014 -90 -90   XYZ
    dof rx
    limits (0.0 90.0)
  end
  begin
     id 30
     name rthumb
     direction -0.707107 -6.34953e-011 0.707107   
     length 0.579829   
     axis -90 -45 -2.85299e-015   XYZ
    dof rx rz
    limits (-45.0 45.0)
           (-45.0 45.0)
  end
:hierarchy
  begin
    root lhipjoint rhipjoint lowerback
    lhipjoint lfemur
    lfemur ltibia
    ltibia lfoot
    lfoot ltoes
    rhipjoint rfemur
    rfemur rtibia
    rtibia rfoot
    rfoot rtoes
    lowerback upperback
    upperback thorax
    thorax lowerneck lclavicle rclavicle
    lowerneck upperneck
    upperneck head
    lclavicle lhumerus
    lhumerus lradius
    lradius lwrist
    lwrist lhand lthumb
    lhand lfingers
    rclavicle rhumerus
    rhumerus rradius
    rradius rwrist
    rwrist rhand rthumb
    rhand rfingers
  end

#!OML:ASF E:\madness\Project 1\Capture day 1\Session 1\Female1.ASF
:FULLY-SPECIFIED
:DEGREES
640
root 30.6246 15.7356 1.83373 -346.791 -71.0018 355.973
lowerback -2.72365 4.89736 -4.46649
upperback -2.36979 6.60505 1.5942
thorax -1.61856 3.39065 4.17411
lowerneck 5.17568 16.7051 12.6918
upperneck 8.94268 24.1155 -15.3856
head 5.28651 11.9555 -5.30538
rclavicle -5.39203e-015 -5.1684e-015
rhumerus -42.0541 23.384 -65.1362
rradius 85.0015
rwrist -4.13153
rhand -10.1004 -39.2522
rfingers 7.12502
rthumb 15.887 -68.6205
lclavicle -5.39203e-015 -5.1684e-015
lhumerus -36.1255 -36.7527 62.5897
lradius 112.741
lwrist -12.94
lhand -12.833 -15.2273
lfingers 7.12502
lthumb 13.2542 14.3313
rfemur -6.21252 7.06663 19.3861
rtibia 23.6315
rfoot -27.1426 -21.9634
rtoes -9.54456
lfemur -34.708 -15.8276 -7.03203
ltibia 37.7756
lfoot -15.5268 -0.696749
ltoes 0.826123
641
root 30.6331 15.7328 1.81682 -347.269 -70.3413 356.399
lowerback -2.76033 4.98501 -4.49665
upperback -2.41189 6.72269 1.50473
thorax -1.64685 3.45042 4.09856
lowerneck 5.38774 16.505 12.8516
upperneck 8.64404 23.8498 -15.5379
head 5.15935 11.8474 -5.4319
rclavicle 6.22941e-014 1.39149e-014
rhumerus -41.7722 23.4112 -64.937
rradius 84.3985
rwrist -3.70245
rhand -10.0269 -39.1567
rfingers 7.12502
rthumb 15.9577 -68.5194
lclavicle 6.22941e-014 1.39149e-014
lhumerus -34.7658 -37.3491 62.096
lradius 112.09
lwrist -12.641
lhand -12.7284 -15.3072
lfingers 7.12502
lthumb 13.355 14.2448
rfemur -6.17521 6.48342 19.4568
rtibia 23.7884
rfoot -27.1478 -22.1957
rtoes -10.9597
lfemur -34.7971 -15.8565 -7.09119
ltibia 37.5301
lfoot -15.551 -1.35518
ltoes -0.0488801
642
root 30.6429 15.7298 1.79866 -347.535 -69.6052 356.643
lowerback -2.77119 5.00522 -4.46901
upperback -2.44171 6.74875 1.45367
thorax -1.66475 3.46332 4.03011
lowerneck 5.23673 16.5352 12.665
upperneck 8.75254 23.85 -15.212
head 5.15375 11.8413 -5.29871
rclavicle 1.9866e-014 -3.57812e-015
rhumerus -41.3977 23.6702 -64.8011
rradius 83.8399
rwrist -3.74394
rhand -11.097 -38.6358
rfingers 7.12502
rthumb 14.9271 -68.078
lclavicle 1.9866e-014 -3.57812e-015
lhumerus -33.5337 -37.8303 61.6248
lradius 111.489
lwrist -12.4056
lhand -12.9498 -15.1761
lfingers 7.12502
lthumb 13.1416 14.3898
rfemur -6.1369 6.04629 19.6213
rtibia 23.8629
rfoot -27.0393 -22.6659
rtoes -11.7876
lfemur -34.9146 -15.8559 -7.09273
ltibia 37.2838
lfoot -15.6762 -1.85984
ltoes -1.75273
643
root 30.6508 15.7314 1.7782 -347.713 -68.8267 356.729
lowerback -2.72044 4.92105 -4.48637
upperback -2.40114 6.63656 1.52934
thorax -1.65058 3.40758 4.11595
lowerneck 5.13052 16.5357 13.0958
upperneck 8.8406 23.9569 -15.8904
head 5.35164 11.879 -5.5171
rclavicle 1.70582e-014 1.98785e-015
rhumerus -40.8531 24.2913 -64.5625
rradius 83.4416
rwrist -3.76937
rhand -11.7948 -38.8623
rfingers 7.12502
rthumb 14.2548 -68.3531
lclavicle 1.70582e-014 1.98785e-015
lhumerus -32.5378 -37.9843 61.2377
lradius 110.947
lwrist -12.2414
lhand -12.936 -15.195
lfingers 7.12502
lthumb 13.1549 14.37
rfemur -6.01821 5.69074 19.8838
rtibia 23.9169
rfoot -26.8284 -23.3066
rtoes -12.8622
lfemur -35.0036 -15.8765 -7.04609
ltibia 37.0596
lfoot -15.7584 -2.65892
ltoes -2.06888
644
root 30.6534 15.7386 1.76122 -348.13 -68.0801 357.034
lowerback -2.68538 4.85114 -4.53193
upperback -2.39452 6.5431 1.53267
thorax -1.659 3.36182 4.14251
lowerneck 4.5825 16.6028 12.2253
upperneck 9.14839 23.902 -14.9615
head 5.30485 11.8175 -5.09489
rclavicle 2.42393e-014 -1.55052e-014
rhumerus -40.6175 24.8703 -64.4634
rradius 83.2007
rwrist -3.60572
rhand -12.0802 -39.2919
rfingers 7.12502
rthumb 13.9797 -68.8018
lclavicle 2.42393e-014 -1.55052e-014
lhumerus -31.6645 -38.1901 60.7997
lradius 110.503
lwrist -12.1343
lhand -12.6254 -15.2086
lfingers 7.12502
lthumb 13.4543 14.3369
rfemur -5.83131 5.248 20.0281
rtibia 23.9905
rfoot -26.6061 -23.778
rtoes -13.652
lfemur -35.0257 -15.8844 -7.15513
ltibia 36.8732
lfoot -15.7889 -3.55959
ltoes -1.71681
645
root 30.654 15.7389 1.74533 -348.553 -67.3025 357.356
lowerback -2.67959 4.85617 -4.57311
upperback -2.42406 6.54953 1.48619
thorax -1.6927 3.36658 4.11507
lowerneck 4.31695 16.5185 12.2321
upperneck 9.41673 23.7926 -14.8737
head 5.40508 11.7464 -5.05112
rclavicle 8.74653e-015 6.75868e-015
rhumerus -40.7926 25.1858 -64.43
rradius 83.1822
rwrist -3.69864
rhand -12.617 -39.086
rfingers 7.12502
rthumb 13.4623 -68.631
lclavicle 8.74653e-015 6.75868e-015
lhumerus -30.607 -38.729 60.2921
lradius 110.138
lwrist -11.7929
lhand -12.2829 -14.7275
lfingers 7.12502
lthumb 13.7844 14.7959
rfemur -5.62922 4.69049 20.1445
rtibia 24.0634
rfoot -26.5071 -24.0336
rtoes -13.9888
lfemur -35.0679 -16.0464 -7.24417
ltibia 36.7182
lfoot -15.9521 -4.2017
ltoes -1.30295
646
root 30.6585 15.7318 1.72598 -348.707 -66.4631 357.427
lowerback -2.67476 5.02422 -4.64365
upperback -2.4055 6.77587 1.47743
thorax -1.70792 3.4814 4.14219
lowerneck 4.45926 16.2721 12.3673
upperneck 9.05036 23.4637 -15.1456
head 5.27152 11.6023 -5.21217
rclavicle -1.50331e-014 -7.55382e-015
rhumerus -41.0832 24.933 -64.0783
rradius 83.2499
rwrist -3.91935
rhand -12.9782 -38.6795
rfingers 7.12502
rthumb 13.1142 -68.2471
lclavicle -1.50331e-014 -7.55382e-015
lhumerus -28.7009 -39.49 59.8115
lradius 109.576
lwrist -11.2949
lhand -11.411 -13.976
lfingers 7.12502
lthumb 14.6245 15.4883
rfemur -5.50737 4.15175 20.3808
rtibia 24.1673
rfoot -26.2055 -24.4075
rtoes -15.1042
lfemur -35.2287 -16.2659 -7.16793
ltibia 36.5939
lfoot -15.9429 -4.88344
ltoes -0.483986
647
root 30.6607 15.7242 1.70863 -349.181 -65.2785 357.66
lowerback -2.44668 5.05862 -4.69084
upperback -2.32153 6.81609 1.50041
thorax -1.76115 3.50285 4.17315
lowerneck 3.88743 16.2008 12.1819
upperneck 9.38264 23.3358 -14.9053
head 5.39733 11.5054 -5.07399
rclavicle 2.36926e-014 -8.74653e-015
rhumerus -41.2852 24.7778 -63.7139
rradius 83.2709
rwrist -4.30422
rhand -12.8557 -38.6042
rfingers 7.12502
rthumb 13.2323 -68.1643
lclavicle 2.36926e-014 -8.74653e-015
lhumerus -26.6603 -40.0935 59.3888
lradius 108.912
lwrist -10.881
lhand -10.4529 -13.3267
lfingers 7.12502
lthumb 15.5475 16.0683
rfemur -5.16466 3.43379 20.655
rtibia 24.3551
rfoot -26.0152 -24.918
rtoes -15.6939
lfemur -35.3091 -16.6457 -7.1932
ltibia 36.4912
lfoot -15.7706 -5.94196
ltoes 0.757849
648
root 30.6655 15.7176 1.69521 -349.638 -64.1621 358.001
lowerback -2.27984 4.86948 -4.75505
upperback -2.2968 6.55975 1.63294
thorax -1.82423 3.37868 4.33421
lowerneck 3.82821 16.3042 11.8029
upperneck 9.45368 23.4778 -14.9179
head 5.40591 11.557 -5.0079
rclavicle 9.05091e-014 1.03368e-014
rhumerus -41.1881 25.4086 -63.3637
rradius 83.2924
rwrist -4.60319
rhand -12.3753 -38.6671
rfingers 7.12502
rthumb 13.6953 -68.1964
lclavicle 9.05091e-014 1.03368e-014
lhumerus -25.408 -40.2811 59.2265
lradius 108.363
lwrist -10.6093
lhand -10.3021 -13.1316
lfingers 7.12502
lthumb 15.6928 16.252
rfemur -5.00363 2.62194 20.8064
rtibia 24.5946
rfoot -25.8853 -25.3577
rtoes -15.9569
lfemur -35.5008 -17.0261 -7.2656
ltibia 36.388
lfoot -15.5698 -6.96067
ltoes 2.19949
649
root 30.6739 15.7129 1.68409 -349.993 -63.0805 358.423
lowerback -2.27592 4.61904 -4.85813
upperback -2.2672 6.22881 1.78259
thorax -1.78725 3.21539 4.55253
lowerneck 3.38353 16.5205 11.1168
upperneck 9.66828 23.7452 -14.7837
head 5.4838 11.6405 -4.80749
rclavicle -2.59414e-014 -9.54166e-015
rhumerus -40.922 26.0926 -62.8952
rradius 83.3264
rwrist -4.57793
rhand -11.9379 -38.667
rfingers 7.12502
rthumb 14.1168 -68.1675
lclavicle -2.59414e-014 -9.54166e-015
lhumerus -24.1257 -39.9647 59.4364
lradius 107.351
lwrist -10.8812
lhand -10.9943 -13.8183
lfingers 7.12502
lthumb 15.026 15.6165
rfemur -5.04075 1.86274 20.8515
rtibia 24.7596
rfoot -25.4385 -25.9587
rtoes -17.3343
lfemur -35.8808 -17.4825 -7.32459
ltibia 36.2832
lfoot -15.3652 -7.70824
ltoes 2.29179
